<?xml version="1.0" encoding="UTF-8"?>
<!DOCTYPE svg PUBLIC "-//W3C//DTD SVG 1.1//EN" "http://www.w3.org/Graphics/SVG/1.1/DTD/svg11.dtd">
<!-- Creator: CorelDRAW -->
<svg xmlns="http://www.w3.org/2000/svg" xml:space="preserve" width="210mm" height="297mm" version="1.1" style="shape-rendering:geometricPrecision; text-rendering:geometricPrecision; image-rendering:optimizeQuality; fill-rule:evenodd; clip-rule:evenodd"
viewBox="0 0 21000 29700"
 xmlns:xlink="http://www.w3.org/1999/xlink"
 xmlns:xodm="http://www.corel.com/coreldraw/odm/2003">
 <defs>
  <style type="text/css">
   <![CDATA[
    .fil0 {fill:#021F45}
    .fil7 {fill:#0259BE}
    .fil23 {fill:#042146}
    .fil14 {fill:#046CCD}
    .fil29 {fill:#051E45}
    .fil6 {fill:#055AC1}
    .fil20 {fill:#0775CA}
    .fil5 {fill:#0984DA}
    .fil30 {fill:#0A2244}
    .fil11 {fill:#0B94E2}
    .fil26 {fill:#1489D8}
    .fil21 {fill:#169AE6}
    .fil2 {fill:#17A6E8}
    .fil25 {fill:#1BA4E6}
    .fil19 {fill:#1DACEC}
    .fil24 {fill:#21ADED}
    .fil28 {fill:#33BBF2}
    .fil1 {fill:#37BCF0}
    .fil15 {fill:#39B8EE}
    .fil3 {fill:#4EC8F5}
    .fil31 {fill:#53B7E9}
    .fil4 {fill:#6AD3F7}
    .fil9 {fill:#77D9F9}
    .fil17 {fill:#8ACDEE}
    .fil13 {fill:#A4E7FA}
    .fil27 {fill:#ADD9F3}
    .fil16 {fill:#B8E8FB}
    .fil22 {fill:#C6E8F7}
    .fil12 {fill:#F4FAFC}
    .fil18 {fill:#FBFBFD}
    .fil10 {fill:#FCFDFD}
    .fil8 {fill:#FDFDFE}
   ]]>
  </style>
 </defs>
 <g id="Capa_x0020_1">
  <metadata id="CorelCorpID_0Corel-Layer"/>
  <path class="fil0" d="M11264 21068c49,347 15,966 7,1336 -4,178 54,483 -89,580 -79,54 -466,89 -516,-71 -41,-130 -27,-1102 -26,-1318 0,-163 -50,-502 95,-578 136,-71 413,-16 530,50zm-2342 -616c1,-397 30,-452 457,-424 164,11 225,41 243,206 37,338 -51,1780 -16,2133 743,20 853,-76 869,334 15,378 -130,324 -447,325 -166,0 -981,16 -1057,-57 -85,-82 -49,-830 -49,-998l-1 -1519zm-6382 2265c68,-78 415,-211 538,-168 7,16 10,16 11,52 0,32 2,19 -8,49 -19,60 -98,128 -130,184 217,-146 275,-560 473,-35l-27 7c-3,1 -10,2 -13,3l-40 5c-2,0 -11,6 -13,2l-8 241c-87,-41 -11,-39 -124,-46 -19,83 0,122 -54,198 -60,-60 -59,-136 -105,-212l-87 240c-85,-32 -31,-19 -84,-78 -28,43 -47,105 -70,142 -33,53 -46,56 -84,58l-26 -6c-72,-124 11,-252 12,-365 -53,37 -97,98 -194,54 -13,-131 140,-267 236,-314 -94,9 -115,46 -203,-11zm13308 102c-271,316 -1011,357 -1444,103 -948,-557 -310,-2309 890,-1877 526,190 783,753 649,1176 -404,74 -1080,-10 -1353,30 -3,196 218,350 429,357 287,10 471,-120 677,-108 38,77 137,225 152,320zm-10588 -2668c808,307 1111,1156 886,1882 -86,276 -94,295 -240,489 -349,464 -946,639 -1541,498 -507,-120 -617,-354 -855,-527 -5,-3 -22,-14 -24,-19 -721,-967 -89,-2963 1773,-2322zm7096 1066c73,-33 311,-279 671,-236 260,31 434,181 532,359 126,231 127,1351 65,1644 -133,43 -392,92 -550,23 -140,-61 -100,-354 -101,-524 -1,-193 18,-447 -4,-631 -23,-197 -116,-319 -337,-298 -610,60 -57,1319 -437,1458 -50,18 -444,54 -514,-57 -44,-80 -22,-1228 -18,-1419 5,-252 -48,-495 200,-533 484,-75 444,143 492,214zm-5194 -57c62,-24 111,-65 185,-97 207,-89 456,-139 674,-64 675,232 484,1004 494,1681 3,188 -8,335 -203,354 -149,14 -377,33 -437,-93 -63,-133 -13,-851 -29,-1062 -14,-175 -57,-304 -202,-344 -136,-38 -313,15 -388,110 -150,190 -8,1155 -88,1272 -126,184 -542,117 -635,69 -47,-352 -12,-1019 -10,-1409 2,-320 -58,-528 125,-579 93,-26 238,-32 335,-5 130,35 127,83 179,169zm-4294 1248c-81,71 -215,81 -318,116 -89,30 -73,46 -118,113 -39,57 -63,67 -116,102 -113,77 -321,177 -466,204 -33,6 -73,14 -107,11 -298,-21 185,-399 235,-450 -138,-40 -243,-39 -398,-94 -103,-37 -259,-88 -310,-165 131,-241 582,-209 717,-210 -35,-2 -338,-184 -359,-321l178 14c286,20 32,-33 463,-21 -30,-137 -141,-262 -153,-408 221,-11 640,146 714,272 75,129 26,273 95,397 75,133 123,174 118,374l-177 64zm-118 -2078c3,-3 7,-9 9,-11l19 -19c105,-76 63,31 104,-72 30,-74 -14,-77 49,-167 201,101 309,499 14,783l56 48c13,11 17,9 36,31 -51,145 -269,183 -275,186 -142,54 -192,142 -353,19 -4,-76 14,-68 38,-137 -129,-3 -255,-8 -348,-67 114,-194 263,-191 554,-195 -47,-67 -85,-55 -149,-111 -64,-56 -274,-332 -290,-488 197,-30 325,-67 536,200z"/>
  <path class="fil0" d="M17406 20756c93,-60 192,-97 333,-87 -37,66 -145,149 -207,190 128,-3 222,-28 368,-17 58,4 120,12 174,25 67,16 85,23 125,57 -31,61 -174,189 -245,233 -124,77 -228,87 -388,91 171,43 427,211 487,347 -101,124 -341,63 -489,33l-231 -8c18,169 68,105 115,240l-593 -146 28 245c-230,-11 -148,-107 -305,-129l-14 240c-114,-33 -169,-113 -206,-236 -124,-408 -111,-305 -35,-399l84 -132c24,-19 306,-82 329,-177 2,-8 7,-10 10,-19l-291 38c30,-106 105,-140 191,-196 101,-65 111,-119 204,-173 167,-96 382,-183 570,-196 -9,32 -43,96 -44,99 -11,80 -48,39 34,76zm-2837 30c-18,1 -216,-78 -263,-95 67,-127 296,-146 424,-155 -61,-77 -292,-216 -308,-448 220,-9 284,82 467,111 -28,-120 -47,-123 -48,-266 142,33 163,83 239,163 93,97 158,121 168,216 32,0 21,7 24,-31 -5,-115 -38,-205 -39,-324 -2,-119 47,-213 152,-149 88,54 268,305 276,427l42 46c22,25 3,8 25,29l51 -81c-25,-216 214,-705 406,-799 50,74 37,129 43,231 130,-32 128,-113 226,-149 22,215 12,514 -79,661l4 6c140,-94 286,-321 422,-369 25,-27 -40,-28 48,-25l7 154c165,-50 243,-242 428,-213 29,176 -147,416 -167,459 133,-44 286,-128 462,-103 11,132 -159,286 -225,353 -178,180 -204,66 -564,305 -142,94 -142,33 -541,325 -148,108 -313,290 -454,92 -57,-80 30,-18 -71,-71 -290,-153 -345,-191 -659,-214l-379 -48c-92,-10 -65,11 -114,-38zm-3360 -3231c139,-40 459,-394 1024,-39 283,178 427,474 423,922 -4,443 -139,746 -424,921 -564,347 -882,-32 -992,-47 -49,315 171,908 -364,891 1,0 158,0 159,0 43,2 80,-3 123,24 107,66 128,150 138,222 11,83 23,163 -25,223 -134,348 -892,259 -699,-341 47,-87 142,-115 172,-121 0,0 33,-6 66,-8 33,-2 67,1 67,0 -88,0 -229,0 -301,-42 -8,-593 0,-1189 5,-1782 6,-675 -113,-948 360,-978 179,-12 219,15 269,154zm-5721 -194c326,-18 638,74 822,240 744,669 299,1821 -580,1887 -695,53 -1121,-335 -1200,-957 -80,-631 391,-1138 958,-1170zm2115 188c66,-8 174,-104 288,-143 289,-99 597,-18 830,150l84 77c2,2 9,14 10,11 2,-3 7,7 10,11 219,-147 348,-341 808,-282 713,93 577,999 572,1598 -2,176 39,366 -88,444 -78,48 -397,45 -483,15 -243,-114 75,-1251 -220,-1441 -128,-83 -342,-36 -419,48 -116,127 -74,805 -75,1033 -1,193 2,339 -177,369 -167,28 -352,3 -477,-44 -48,-222 -29,-605 -27,-857 3,-310 38,-594 -322,-581 -331,12 -301,313 -302,601 -4,728 132,928 -428,893 -182,-11 -212,-31 -222,-221 -14,-279 -1,-587 -1,-869 -1,-178 -41,-745 49,-846 97,-108 352,-155 491,-82 70,37 35,52 98,117zm9683 -184c229,-55 498,-17 693,66 141,59 425,208 297,418 -153,251 -220,155 -492,53 -412,-155 -540,68 -420,182 211,201 876,126 972,607 99,491 -282,807 -733,815 -344,6 -1157,-138 -1014,-504 121,-308 221,-144 472,-62 147,48 546,148 621,-37 103,-255 -688,-119 -954,-617 -109,-204 -76,-472 41,-643 96,-141 287,-224 517,-279zm-3729 271c93,-27 95,-75 294,-187 242,-137 528,-138 446,349 -26,152 -47,230 -207,238 -305,15 -488,109 -502,422 -40,862 91,1015 -383,1001 -392,-11 -285,-8 -282,-1099 2,-686 -120,-946 422,-966 224,-8 229,35 213,242zm2045 596c87,-271 -227,-410 -474,-371 -227,36 -459,306 -565,27 -120,-319 91,-395 347,-465 250,-69 504,-99 764,-34 712,178 618,636 614,1149 -3,374 115,437 -87,729 -76,109 -76,183 -256,178 -203,-6 -166,-87 -256,-177 -139,50 -176,126 -350,181 -952,306 -1336,-814 -619,-1171 123,-61 280,-87 435,-94 187,-9 309,46 445,47zm-11470 328c103,64 197,264 260,409 51,118 41,137 -44,218 -640,605 -2492,456 -2423,-1281 31,-783 527,-1324 1226,-1453 803,-149 1457,336 1313,601 -35,64 -286,240 -371,282 -107,-49 -110,-85 -195,-142 -496,-331 -1263,-57 -1252,791 6,429 182,701 506,823 525,198 876,-204 981,-248zm788 -2054c87,-49 4196,-80 4872,-91 1576,-26 3232,-116 4793,-142 250,-4 573,4 814,-22 237,-25 536,-49 743,38 245,104 1017,390 1160,473 -157,118 -1202,113 -1509,61 -275,-47 -2001,-4 -2431,-2 -271,1 -520,34 -789,22 -538,-24 -1039,-55 -1585,-33 -539,21 -1088,-7 -1630,9 -540,16 -1096,10 -1637,8 -880,-4 -762,160 -1482,-3 -241,-55 -445,-84 -699,-128l-492 -114c-91,-20 -102,-6 -128,-76zm11862 -11123c82,29 96,51 151,93 24,346 1,791 2,1148 1,370 4,736 14,1105 19,748 6,1492 32,2240 26,739 13,1496 23,2237 10,749 24,1508 8,2256l3 625 12 754c33,48 12,22 22,92 9,58 -7,28 16,80 18,-294 116,-637 99,-913 -6,-199 27,-377 37,-566 10,-193 1,-395 16,-586 51,-630 34,-1664 57,-2314 41,-1159 23,-2324 29,-3491 2,-393 -7,-792 0,-1183 4,-226 -37,-1015 2,-1163 34,1 57,-1 92,6 27,6 24,7 47,16l30 16c376,65 354,14 369,217 4,54 5,106 9,160 7,113 26,220 33,333l118 2014c48,895 77,1812 149,2703 71,875 142,1805 178,2681l180 2680c-414,130 -397,229 -808,24 -170,-85 -584,-256 -707,-354 -72,-15 -314,-137 -350,-169l-431 -213c-16,-196 32,-1063 36,-1355 30,-2204 143,-4491 189,-6706 9,-420 -11,-2535 28,-2732 65,80 251,176 316,267zm-606 1847c23,527 -27,1128 -38,1663 -11,544 -17,1098 -37,1637 -37,982 -47,2261 -132,3196 -8,204 -81,2124 -118,2170 -96,118 -2877,140 -3356,141 -382,1 -771,30 -1141,27 -353,-12 -784,17 -1144,34 -377,19 -771,13 -1146,36 -931,58 -2493,68 -3492,60 -197,-2 -395,1 -592,1 -214,0 -341,54 -520,-37 -974,-494 -1548,-59 -1935,-9l-70 8c56,-245 85,-737 104,-1012 24,-339 59,-674 86,-1016 135,-1708 232,-3421 354,-5136 22,-311 76,-683 71,-998 -3,-354 74,-1099 91,-1570l22 -181c4,-36 916,-70 1066,-83 250,-21 778,-121 1009,-92 19,80 31,161 55,244 22,75 54,139 72,213 148,290 255,372 220,644 -35,270 55,508 270,593 292,116 464,-113 554,-283 70,-131 90,-187 94,-364 5,-198 -40,-215 -65,-364l-86 -120c-33,-45 -42,-58 -90,-107 -133,-137 -172,-122 -186,-201 -79,-53 -108,-191 -111,-309 467,-8 994,-120 1461,-158 489,-40 968,-103 1447,-150l2897 -308c50,153 83,315 133,475 26,82 167,368 157,429 -10,61 -66,135 -77,245 -8,89 5,185 34,256 168,412 738,508 1055,-36 119,-205 179,-619 -17,-826 -36,-38 -41,-22 -48,-67 -283,-139 -162,-63 -271,-105 -81,-32 -32,-6 -59,-45 -46,-80 -64,-346 -24,-422 27,-28 3487,-358 3531,-316 79,132 -38,1915 -27,2242zm-7695 -1820c0,-264 273,-893 380,-1097 344,-654 667,-1180 1230,-1649 163,-135 676,-482 923,-514 203,177 439,919 512,1299 21,110 167,1387 158,1558l-21 87 -3182 316zm4226 -441c-169,-1500 0,-1380 -582,-2859 209,22 544,340 639,437 349,355 582,941 701,1450 31,135 185,773 163,882l-921 90zm-4884 535c125,-1019 521,-1724 970,-2384 222,-327 504,-617 847,-829 213,-132 976,-564 1215,-421 -24,60 24,16 -65,54l-217 78c-484,187 -997,654 -1316,1069 -40,52 -52,77 -84,114 -325,381 -762,1191 -927,1675l-119 478c-2,13 -12,74 -15,82 -25,74 -29,32 -40,73l-251 12zm6099 -642c-79,-981 -439,-2199 -1190,-2776 -87,-67 -316,-196 -415,-236 -78,-32 -173,-60 -263,-75 -154,-27 -111,-21 -179,-109 258,-33 811,228 991,344 233,150 497,442 663,698 292,451 668,1589 585,2121 -62,34 -111,35 -193,33zm-7993 814c-45,-297 1,-889 59,-1178 74,-371 203,-592 349,-895 287,-597 667,-1023 1049,-1416 472,-484 1652,-1405 2472,-1132 267,89 564,270 761,460 -61,48 -251,106 -325,127 -683,198 -1376,756 -1783,1334 -320,455 -403,641 -630,1146 -83,186 -177,449 -229,658 -32,128 -64,235 -89,366 -41,211 -5,358 -101,392 -85,30 -1506,142 -1533,138zm124 1228c155,98 139,319 30,445 -3,-3 -8,-7 -10,-9 -65,-65 -201,-287 -221,-361 -111,-111 -344,-592 -403,-787 -190,-629 -125,-1458 56,-2077 80,-273 221,-618 338,-848l461 -743c45,-61 90,-100 135,-161l563 -621c386,-369 692,-621 1195,-876 515,-262 366,-191 898,-306 650,-141 1331,74 1832,470 118,93 215,175 318,274 73,70 180,231 255,337 291,412 553,1103 665,1704 64,341 114,674 147,1030l113 1074c52,56 114,483 141,586 56,215 123,380 104,629 -128,-3 -126,-29 -181,-115 -308,-474 -410,-1042 -472,-1609 -37,-831 -55,-1142 -252,-1928 -127,-507 -442,-1143 -704,-1466 -173,-214 -333,-363 -553,-531 -774,-592 -1711,-278 -2433,164 -349,213 -914,704 -1171,998 -436,499 -572,706 -883,1287 -267,497 -408,1073 -429,1738 -38,1213 356,1394 461,1700zm-1036 -1187c-124,63 -1595,152 -1967,200 -196,26 -210,13 -219,213 -39,912 -617,9476 -743,10030 -37,161 -74,185 -31,346 -157,159 -151,136 -270,319 -265,407 -392,905 -351,1412 88,1091 760,1389 834,1519 -181,53 -383,45 -409,261 -30,251 71,372 168,513 -131,106 -273,150 -307,356 -50,299 141,155 83,513 -692,7 -502,317 -573,433 -37,60 -464,300 -257,631 95,153 219,168 391,258 -15,121 -124,211 -64,359 35,86 143,150 237,199 334,176 393,-19 666,-69 371,821 466,548 803,397 148,-66 349,203 502,-305 217,33 848,593 2063,149 233,-85 353,-197 531,-285 26,53 2,180 206,296 93,53 269,91 389,100 365,29 572,-55 786,-207 58,22 137,96 234,137 292,123 653,66 937,2 122,-28 205,30 313,46 202,30 835,35 1041,33 232,-2 464,-58 673,-26 222,35 463,12 674,-36 134,-30 204,21 330,36 644,74 884,-144 927,-145 95,-3 162,200 743,160 141,-10 287,-7 411,-39 167,-43 176,-102 286,-154 101,35 205,107 324,152 779,292 1830,-51 2026,-541 80,-200 -5,-210 -44,-339 64,-55 114,-86 171,-146 59,-62 76,-109 172,-129 276,262 388,-108 450,-210 311,51 463,162 620,-132 259,12 452,5 560,-173 52,-86 86,-172 67,-287 -20,-126 -71,-160 -103,-245 66,-130 370,-337 191,-628 -79,-128 -384,-290 -596,-313 -12,-73 42,-279 79,-328 53,-71 477,-176 702,-560 481,-818 -20,-1274 -22,-1286 31,-167 241,-359 163,-620 -34,-112 -102,-159 -162,-231 -60,-72 -153,-130 -192,-195 65,-102 290,-205 405,-296l-132 -1981c-59,-631 -85,-1313 -126,-1964 -40,-645 -70,-1329 -133,-1980 -61,-633 -76,-1309 -130,-1960 -54,-662 -62,-1326 -119,-1987 -129,-1482 100,-1364 -607,-1484 -404,-68 -144,-67 -631,-432 -106,-79 -201,-151 -306,-226 -84,-60 -225,-189 -292,-222 -151,-74 -1707,185 -1919,141 -34,-144 -38,-386 -62,-548 -68,-459 -237,-983 -439,-1393 -133,-270 -466,-725 -664,-875 -478,-362 -824,-586 -1498,-635 -231,-17 -255,-130 -359,-250 -66,-77 -228,-198 -333,-279 -421,-326 -1102,-679 -1840,-582 -629,83 -1319,397 -1744,703 -132,95 -247,157 -358,254 -456,398 -495,431 -918,917 -600,690 -1009,1586 -1175,2495 -106,581 -29,938 -60,1143z"/>
  <path class="fil1" d="M6094 6326l583 -100c606,-64 1177,-71 1732,-150 212,-30 362,-22 538,52 359,152 336,586 320,931 -9,204 -62,354 -93,517 -66,346 -229,608 -394,854 -200,298 -270,451 -495,747l-68 92c-206,231 -61,166 -166,310 -273,379 -696,815 -1025,1142 -60,59 -111,97 -167,148 -119,108 -222,182 -344,287 -215,185 -425,391 -701,545l-363 266c-337,252 -939,501 -1416,438 -374,-49 -512,-279 -606,-644 -102,-397 -111,-706 -92,-1152l82 -2270c1,-25 3,-50 9,-74 14,-52 -5,-12 22,-45 -15,-126 9,-329 8,-471 -7,-1130 -198,-1210 1063,-1294 316,-21 587,-76 817,49 41,22 3,2 47,24 -18,-75 -50,-138 -72,-213 -24,-83 -36,-164 -55,-244 -231,-29 -759,71 -1009,92 -150,13 -1062,47 -1066,83l-22 181c-16,471 -94,1217 -91,1570 55,-52 -1,-9 62,-37 25,92 12,-10 31,88 27,133 -32,1518 -35,1674 -17,727 -107,1830 -174,2590 -24,277 -19,593 -33,877 -19,380 -24,1577 -52,1791l268 -633c197,-1 414,121 602,170 781,208 1040,253 1885,364 687,91 2152,232 2823,159 589,-64 629,-5 1337,-160 213,-47 407,-99 602,-148 413,-105 1000,-304 1383,-492 94,-46 171,-89 251,-123 408,-175 1032,-580 1380,-870 569,-472 1024,-1029 1220,-1778 222,-847 194,-672 329,-1542l113 -976c0,-116 -10,-263 -1,-375 17,-212 8,-65 -21,-275 -31,-224 -42,-172 -70,-305 -41,-194 17,-153 -85,-469l-77 -178c-25,-46 -36,-19 -69,-202l-90 -289c-37,-91 -65,-190 -103,-273 -23,-50 -43,-69 -63,-113 -49,-109 -11,-146 -226,-348 -128,-121 -342,-194 -502,-251 -203,-73 -474,-46 -726,-48 -19,31 -14,-6 0,49 7,45 12,29 48,67 196,206 136,621 17,826 -317,544 -887,448 -1055,36 -29,-71 -42,-167 -34,-256 10,-110 67,-183 77,-245 10,-61 -132,-347 -157,-429 -50,-160 -84,-322 -133,-475l-2897 308c-479,47 -958,110 -1447,150 -467,38 -995,150 -1461,158 3,118 32,256 111,309z"/>
  <path class="fil2" d="M13027 5876c-13,-55 -19,-18 0,-49 252,3 523,-25 726,48 160,57 374,130 502,251 214,203 177,239 226,348 20,44 40,63 63,113 38,83 66,182 103,273l90 289c33,182 44,156 69,202l77 178c102,316 44,275 85,469 28,133 39,81 70,305 29,210 39,63 21,275 -9,112 0,259 1,375l-113 976c-135,869 -106,695 -329,1542 -197,749 -652,1306 -1220,1778 -348,289 -972,695 -1380,870 -80,34 -157,77 -251,123 -382,188 -969,387 -1383,492 -195,50 -389,102 -602,148 -707,155 -748,96 -1337,160 -671,73 -2136,-69 -2823,-159 -845,-111 -1104,-156 -1885,-364 -188,-50 -405,-172 -602,-170l-268 633c-36,240 -75,449 -116,673l62 -30c171,-108 39,-146 431,-156 194,-5 466,9 611,74 673,304 1572,429 2348,415 2111,-39 4384,-4 6430,-476 427,-99 671,-201 1023,-358 747,-333 1432,-989 1670,-1784l168 -1212c24,-214 26,-435 32,-669 6,-223 53,-416 56,-631 2,-157 103,-1111 146,-1228l85 -606c0,-104 14,-581 33,-661 42,-175 26,-221 46,-287 2,-6 12,-90 49,-113 50,-31 -5,21 131,21l40 -164c3,-128 30,-194 40,-297 12,-123 -62,-216 25,-262 -11,-327 106,-2111 27,-2242 -44,-42 -3504,289 -3531,316 -39,76 -22,343 24,422 27,39 -22,13 59,45 109,43 -12,-34 271,105z"/>
  <path class="fil3" d="M6094 6326c15,79 54,64 186,201 48,49 57,62 90,107l86 120c18,-70 -17,-21 30,-57 20,31 6,58 80,18 166,-90 351,-153 533,-203 310,-85 1081,28 803,784 -198,536 -879,1284 -1284,1578l-337 315c-152,127 -293,321 -444,425 -65,45 -115,61 -162,113 -174,192 -142,137 -311,301l-335 316c-252,262 -307,298 -567,537 -250,229 -600,447 -857,96l-133 -422c-31,-79 6,7 -36,-59 -84,-131 -50,-378 -31,-571 28,-279 -4,-570 5,-855 8,-252 62,-608 39,-851 -27,33 -8,-7 -22,45 -6,24 -8,49 -9,74l-82 2270c-19,446 -9,756 92,1152 94,366 233,595 606,644 477,63 1079,-186 1416,-438l363 -266c276,-154 486,-361 701,-545 122,-105 226,-178 344,-287 56,-51 108,-89 167,-148 329,-328 752,-764 1025,-1142 104,-144 -40,-79 166,-310l68 -92c225,-297 295,-450 495,-747 165,-246 328,-508 394,-854 31,-163 84,-314 93,-517 16,-345 38,-779 -320,-931 -175,-74 -326,-83 -538,-52 -555,79 -1126,86 -1732,150l-583 100z"/>
  <path class="fil4" d="M5395 7098c10,225 -59,207 41,447 69,165 164,218 140,339 -41,201 -753,899 -858,1041 -190,258 -454,224 -650,31 -47,-46 -80,-81 -125,-132 -213,-238 -184,-1232 694,-1695 104,-55 219,-103 362,-110l396 79zm-1946 1122c23,243 -31,599 -39,851 -9,284 23,575 -5,855 -20,193 -53,440 31,571 42,66 5,-19 36,59l133 422c257,351 608,133 857,-96 261,-239 316,-275 567,-537l335 -316c169,-164 136,-109 311,-301 47,-52 97,-68 162,-113 151,-104 291,-298 444,-425l337 -315c405,-293 1086,-1042 1284,-1578 279,-756 -493,-868 -803,-784 -182,50 -368,113 -533,203 -74,40 -60,13 -80,-18 -47,36 -12,-13 -30,57 26,148 71,166 65,364 -5,177 -25,233 -94,364 -91,170 -262,399 -554,283 -214,-85 -305,-322 -270,-593 35,-272 -72,-354 -220,-644 -44,-22 -6,-2 -47,-24 -231,-124 -502,-70 -817,-49 -1262,84 -1070,164 -1063,1294 1,142 -23,345 -8,471z"/>
  <path class="fil5" d="M2751 15653c-28,39 -77,199 -114,264 -97,170 -27,-23 -89,195l-16 29c-1,-3 -5,6 -8,8 387,-50 961,-485 1935,9 179,91 306,37 520,37 197,0 395,-3 592,-1 999,8 2560,-2 3492,-60 375,-23 769,-18 1146,-36 361,-18 791,-46 1144,-34 24,-27 8,-50 156,-59 257,-16 880,8 1219,-4 -45,-29 -77,-24 -103,-53 -109,-123 361,-127 369,-129l297 -69c298,-60 632,-90 905,-180 890,-294 974,-274 1419,-1109 46,-87 92,-150 134,-222 44,-76 69,-156 117,-238 68,-116 44,-131 66,-199l37 -76c85,-935 94,-2214 132,-3196 21,-539 26,-1093 37,-1637 11,-534 62,-1136 38,-1663 -86,45 -13,138 -25,262 -10,103 -37,169 -40,297l-40 164c-136,0 -81,-52 -131,-21 -38,23 -47,107 -49,113 -21,65 -5,112 -46,287 -19,80 -33,556 -33,661l-85 606c-43,117 -143,1071 -146,1228 -3,214 -49,407 -56,631 -7,233 -8,454 -32,669l-168 1212c-238,795 -922,1451 -1670,1784 -352,157 -596,259 -1023,358 -2045,472 -4319,437 -6430,476 -776,15 -1676,-111 -2348,-415 -145,-65 -417,-80 -611,-74 -392,10 -260,48 -431,156l-62 30z"/>
  <path class="fil6" d="M17164 15100c5,-5 10,-21 12,-18 21,33 32,-175 33,-181 85,2 588,659 626,720 86,139 171,254 272,419 34,56 238,264 292,405l31 -74c1,-113 -21,59 -72,-204 -57,-292 -83,-667 -104,-965 -32,-459 -50,-927 -72,-1363 -23,-451 -103,-889 -118,-1339 -42,-1231 -235,-2688 -326,-3966 -31,-439 -84,-884 -122,-1320 -19,-223 -37,-451 -40,-670 -7,-611 -19,-329 -236,-493l-23 -219 157 2 -30 -16c-23,-9 -20,-10 -47,-16 -35,-7 -57,-5 -92,-6 -39,148 2,937 -2,1163 -7,392 2,790 0,1183 -6,1167 11,2332 -29,3491 -23,650 -5,1684 -57,2314 -16,191 -6,393 -16,586 -10,189 -43,367 -37,566z"/>
  <path class="fil7" d="M4920 16506c26,70 37,55 128,76l492 114c254,43 459,73 699,128 720,163 603,0 1482,3 541,2 1097,7 1637,-8 542,-16 1091,12 1630,-9 546,-21 1046,10 1585,33 269,12 518,-21 789,-22 430,-2 2155,-45 2431,2 307,52 1353,57 1509,-61 -143,-83 -915,-369 -1160,-473 -207,-88 -507,-64 -743,-38 -240,26 -564,18 -814,22 -1561,26 -3217,116 -4793,142 -676,11 -4786,42 -4872,91z"/>
  <path class="fil8" d="M4439 20719c231,-81 417,-50 616,51 378,193 500,672 390,1092 -143,545 -514,666 -1018,546 -126,-30 -374,-119 -454,-302 -166,-463 -132,-578 -45,-866 -237,254 -370,678 -517,1117 -11,49 14,59 65,105 254,246 537,472 890,556 595,141 1192,-34 1541,-498 146,-194 155,-212 240,-489 225,-726 -78,-1575 -886,-1882 -1076,-409 -2295,283 -2086,1719 38,253 50,259 193,466 125,-438 598,-1596 1072,-1617z"/>
  <path class="fil8" d="M7603 17550c-63,-65 -29,-80 -98,-117 -139,-73 -394,-26 -491,82 -90,101 -49,668 -49,846 1,282 -12,590 1,869 9,190 40,210 222,221 560,35 424,-165 428,-893 1,-288 -29,-589 302,-601 360,-13 325,271 322,581 -2,252 -21,635 27,857 125,48 310,72 477,44 179,-30 176,-176 177,-369 1,-229 -42,-907 75,-1033 77,-84 291,-131 419,-48 295,191 -23,1328 220,1441 86,31 405,33 483,-15 127,-78 86,-267 88,-444 6,-599 142,-1506 -572,-1598 -460,-60 -589,135 -808,282 -4,-3 -9,-14 -10,-11 -2,3 -8,-9 -10,-11l-84 -77c-233,-168 -542,-249 -830,-150 -114,39 -223,135 -288,143z"/>
  <path class="fil9" d="M16644 16122c-65,-201 -272,-175 -254,-593 216,-105 376,-527 582,-566l43 125 -3 -625c-3,-5 -6,-18 -7,-16 -1,3 -5,-12 -6,-16l-12 -133c0,-66 -1,-131 -4,-198 -52,-28 48,1 -18,3 -104,4 -33,-62 -111,16 -5,-246 -66,74 -74,-472 -19,-1294 9,-2577 -32,-3886l-23 -2210c48,-544 2,-1287 64,-1875 13,-120 55,-188 -7,-293 -65,-91 -251,-187 -316,-267 -39,196 -20,2312 -28,2732 -46,2215 -159,4502 -189,6706 -4,292 -52,1159 -36,1355l431 213z"/>
  <path class="fil10" d="M11479 17945c166,-48 457,34 544,334 38,130 30,291 -18,419 -149,393 -721,308 -778,-92 -44,-313 5,-590 253,-662zm-270 -389c-50,-140 -89,-166 -269,-154 -472,30 -353,304 -360,978 -5,593 -14,1190 -5,1782 645,95 587,-351 665,-849 110,15 428,394 992,47 285,-175 420,-478 424,-921 4,-448 -141,-744 -423,-922 -565,-355 -885,-1 -1024,39z"/>
  <path class="fil8" d="M4132 18561c-105,44 -456,446 -981,248 -324,-122 -500,-394 -506,-823 -12,-848 756,-1122 1252,-791 86,57 89,93 195,142 85,-43 336,-218 371,-282 144,-266 -510,-750 -1313,-601 -699,130 -1195,670 -1226,1453 -68,1737 1784,1887 2423,1281 85,-80 95,-100 44,-218 -62,-145 -157,-345 -260,-409z"/>
  <path class="fil11" d="M17164 15100c17,276 -81,619 -99,913 -23,-52 -7,-22 -16,-80 -10,-70 11,-44 -22,-92l17 428c-27,22 -8,12 -50,22 123,99 538,270 707,354 411,205 394,105 808,-24l-180 -2680c-36,-875 -107,-1805 -178,-2681 -72,-890 -101,-1808 -149,-2703l-118 -2014c-8,-113 -26,-220 -33,-333 -3,-53 -5,-106 -9,-160 -15,-203 7,-153 -369,-217l-157 -2 23 219c218,164 229,-118 236,493 3,220 21,447 40,670 38,436 91,881 122,1320 91,1278 284,2735 326,3966 15,449 95,888 118,1339 22,436 40,904 72,1363 21,298 47,673 104,965 51,263 74,91 72,204l-31 74c-54,-141 -258,-349 -292,-405 -101,-166 -186,-280 -272,-419 -38,-61 -541,-718 -626,-720 0,5 -12,214 -33,181 -2,-3 -7,12 -12,18z"/>
  <path class="fil12" d="M5853 6980c41,-1 30,-15 65,-67l85 2c6,1 12,3 17,5l33 -15c-105,-306 -499,-488 -461,-1700 21,-665 162,-1242 429,-1738 312,-580 447,-788 883,-1287 257,-294 822,-785 1171,-998 722,-442 1658,-756 2433,-164 220,168 380,317 553,531 262,323 576,959 704,1466 197,786 215,1098 252,1928 36,27 13,-43 36,51l109 -34c151,212 126,449 254,558l9 -65 -113 -1074c-33,-356 -83,-689 -147,-1030 -112,-601 -374,-1292 -665,-1704 -75,-106 -181,-267 -255,-337 -103,-99 -200,-181 -318,-274 -501,-395 -1182,-611 -1832,-470 -532,115 -384,45 -898,306 -503,256 -809,508 -1195,876l-563 621c-45,61 -90,100 -135,161l-461 743c-117,230 -258,574 -338,848 -181,618 -246,1447 -56,2077 59,195 292,677 403,787z"/>
  <path class="fil8" d="M5528 17916c263,-55 478,172 501,404 31,306 -77,541 -331,601 -572,135 -711,-892 -171,-1005zm-40 -554c-566,32 -1038,539 -958,1170 79,622 505,1010 1200,957 879,-67 1324,-1218 580,-1887 -185,-166 -496,-259 -822,-240z"/>
  <path class="fil10" d="M7163 21160c-52,-87 -49,-134 -179,-169 -97,-26 -242,-21 -335,5 -183,51 -124,259 -125,579 -2,391 -37,1058 10,1409 93,48 510,115 635,-69 80,-117 -62,-1082 88,-1272 75,-95 252,-147 388,-110 145,40 189,170 202,344 16,211 -34,930 29,1062 60,126 288,107 437,93 195,-18 205,-166 203,-354 -9,-677 181,-1449 -494,-1681 -218,-75 -467,-25 -674,64 -74,32 -123,73 -185,97z"/>
  <path class="fil10" d="M12357 21217c-48,-72 -8,-290 -492,-214 -248,38 -195,282 -200,533 -4,192 -26,1339 18,1419 70,111 464,75 514,57 380,-140 -173,-1398 437,-1458 221,-22 314,101 337,298 22,184 2,438 4,631 1,170 -39,464 101,524 158,68 417,19 550,-23 62,-293 61,-1413 -65,-1644 -97,-178 -272,-328 -532,-359 -360,-43 -597,203 -671,236z"/>
  <path class="fil10" d="M15606 18834c-97,250 -726,328 -649,-58 14,-72 81,-112 131,-151 72,-57 142,-57 248,-54 193,5 357,40 270,263zm-4 -601c-136,-1 -258,-56 -445,-47 -155,7 -313,33 -435,94 -717,357 -334,1477 619,1171 174,-56 211,-131 350,-181 90,89 54,171 256,177 179,5 180,-69 256,-178 201,-291 84,-355 87,-729 4,-513 98,-970 -614,-1149 -260,-65 -514,-35 -764,34 -255,70 -467,146 -347,465 105,279 337,9 565,-27 247,-39 561,100 474,371z"/>
  <path class="fil10" d="M14614 21822c-2,-60 91,-176 127,-209 169,-156 655,-105 610,243l-737 -35zm1234 997c-15,-95 -114,-243 -152,-320 -207,-12 -390,118 -677,108 -212,-7 -433,-161 -429,-357 274,-40 950,45 1353,-30 135,-423 -122,-986 -649,-1176 -1200,-433 -1838,1320 -890,1877 433,254 1173,213 1444,-103z"/>
  <path class="fil8" d="M8922 20451l1 1519c0,168 -36,916 49,998 76,73 891,57 1057,57 317,0 462,53 447,-325 -17,-410 -127,-314 -869,-334 -35,-353 53,-1795 16,-2133 -18,-166 -80,-196 -243,-206 -427,-28 -456,28 -457,424z"/>
  <path class="fil10" d="M17286 17366c-230,55 -420,138 -517,279 -117,170 -150,439 -41,643 265,497 1056,362 954,617 -75,185 -474,85 -621,37 -251,-82 -351,-246 -472,62 -143,366 671,510 1014,504 452,-8 832,-324 733,-815 -97,-481 -761,-406 -972,-607 -120,-114 8,-337 420,-182 272,102 340,198 492,-53 128,-210 -156,-359 -297,-418 -195,-82 -464,-120 -693,-66z"/>
  <path class="fil13" d="M5395 7098l-396 -79c-143,7 -258,55 -362,110 -878,463 -906,1457 -694,1695 45,50 78,85 125,132 196,192 459,227 650,-31 105,-142 816,-840 858,-1041 25,-121 -71,-173 -140,-339 -100,-240 -31,-222 -41,-447z"/>
  <path class="fil14" d="M11353 16063c371,3 759,-26 1141,-27 479,-2 3260,-23 3356,-141 37,-46 110,-1966 118,-2170l-37 76c-22,68 2,83 -66,199 -48,82 -73,162 -117,238 -42,71 -87,135 -134,222 -445,835 -529,815 -1419,1109 -273,90 -607,120 -905,180l-297 69c-7,2 -477,6 -369,129 25,29 58,25 103,53 -339,12 -962,-12 -1219,4 -147,9 -132,33 -156,59z"/>
  <path class="fil15" d="M17012 14463c16,-748 2,-1507 -8,-2256 -10,-742 2,-1498 -23,-2237 -26,-748 -13,-1492 -32,-2240 -9,-368 -13,-734 -14,-1105 -1,-357 22,-803 -2,-1148 -56,-43 -70,-64 -151,-93 62,104 20,172 7,293 -63,588 -17,1331 -64,1875l23 2210c41,1309 14,2592 32,3886 8,546 69,226 74,472 78,-78 6,-12 111,-16 67,-2 -33,-31 18,-3 2,66 3,131 4,198l12 133c1,4 5,19 6,16 1,-3 4,11 7,16z"/>
  <path class="fil10" d="M13557 17637c16,-207 11,-250 -213,-242 -542,20 -420,280 -422,966 -3,1091 -110,1088 282,1099 474,13 343,-139 383,-1001 14,-313 197,-407 502,-422 160,-8 181,-86 207,-238 83,-487 -203,-486 -446,-349 -199,113 -201,160 -294,187z"/>
  <path class="fil16" d="M3070 7996c5,315 -49,687 -71,998 -122,1714 -220,3428 -354,5136 -27,341 -62,677 -86,1016 -19,275 -48,767 -104,1012l70 -8c3,-3 7,-11 8,-8l16 -29c63,-218 -8,-25 89,-195 37,-65 87,-226 114,-264 41,-224 80,-433 116,-673 28,-214 33,-1411 52,-1791 14,-284 9,-600 33,-877 67,-760 157,-1864 174,-2590 4,-157 63,-1541 35,-1674 -20,-97 -7,4 -31,-88 -63,28 -7,-15 -62,37z"/>
  <path class="fil17" d="M7824 5505l251 -12c11,-41 15,1 40,-73 3,-8 13,-69 15,-82l119 -478c165,-484 602,-1294 927,-1675 31,-37 44,-62 84,-114 319,-415 832,-881 1316,-1069l217 -78c89,-38 40,6 65,-54 -239,-143 -1002,289 -1215,421 -343,212 -625,502 -847,829 -449,661 -845,1365 -970,2384z"/>
  <path class="fil18" d="M11264 21068c-116,-66 -394,-121 -530,-50 -145,76 -95,415 -95,578 0,216 -15,1189 26,1318 51,160 438,124 516,71 143,-98 86,-402 89,-580 8,-371 42,-989 -7,-1336z"/>
  <path class="fil19" d="M2869 22408c26,-43 -14,-54 27,-31 -138,-45 -255,-120 -382,-153 56,-45 -18,-19 66,-27 40,-4 352,110 368,49 -124,-146 -236,-252 -514,-302 -305,-56 -259,-67 -542,-170l-83 -44 -178 -14c21,137 324,319 359,321 -135,1 -587,-31 -717,210 51,77 207,128 310,165 154,55 260,55 398,94 -51,50 -534,429 -235,450 34,2 74,-5 107,-11 145,-27 353,-127 466,-204 52,-35 77,-45 116,-102 46,-67 30,-82 118,-113 103,-35 237,-45 318,-116z"/>
  <path class="fil20" d="M16799 19810c69,-11 61,432 -215,746l-443 484c-55,44 -8,37 -97,43 -8,-174 28,-383 83,-529 90,-237 187,-241 250,-376l-4 -6c-74,35 -36,9 -84,69 -197,244 -174,300 -289,640 -23,67 -18,61 -72,75 -155,37 -148,-80 -151,-135l1 -592 -51 81c-22,-21 -3,-5 -25,-29l-42 -46c-5,192 47,417 14,615 -128,-15 -278,-235 -326,-389 -20,-65 -29,-122 -76,-181 -3,38 8,31 -24,31 19,157 127,336 145,493 -216,-28 -99,-140 -295,-215 12,87 45,192 99,237 -330,0 -383,-39 -628,-39 49,49 22,28 114,38l379 48c314,22 369,61 659,214 101,53 14,-9 71,71 142,199 307,16 454,-92 399,-292 399,-231 541,-325 359,-238 385,-125 564,-305 66,-67 237,-220 225,-353 -176,-25 -329,59 -462,103 20,-44 196,-283 167,-459 -184,-30 -263,163 -428,213l-7 -154c-89,-3 -23,-2 -48,25z"/>
  <path class="fil21" d="M17564 21628c-48,-33 -117,-32 -147,-39 -28,-6 -49,-24 -78,-47 -193,-151 -163,-92 -288,-151 -95,-45 -177,-92 -303,-92 16,-150 163,-184 315,-284 88,-57 300,-172 343,-259 -81,-37 -44,4 -34,-76 0,-4 35,-67 44,-99 -188,13 -402,100 -570,196 -93,54 -102,108 -204,173 -87,56 -161,90 -191,196l291 -38c-2,10 -8,11 -10,19 -23,95 -304,159 -329,177l-84 132c-76,94 -88,-9 35,399 37,123 92,203 206,236l14 -240c157,23 74,119 305,129l-28 -245 593 146c-47,-135 -97,-71 -115,-240l231 8z"/>
  <path class="fil22" d="M13923 4863c82,3 131,1 193,-33 82,-531 -293,-1670 -585,-2121 -166,-256 -430,-548 -663,-698 -181,-116 -733,-377 -991,-344 69,88 25,82 179,109 89,15 184,44 263,75 99,40 328,169 415,236 752,577 1111,1795 1190,2776z"/>
  <path class="fil19" d="M17406 20756c-44,87 -255,202 -343,259 -153,100 -300,134 -315,284 126,1 208,48 303,92 126,59 95,0 288,151 30,23 51,40 78,47 30,7 99,5 147,39 148,30 388,91 489,-33 -59,-136 -316,-304 -487,-347 160,-4 264,-14 388,-91 71,-44 214,-172 245,-233 -40,-35 -58,-41 -125,-57 -54,-13 -116,-21 -174,-25 -146,-11 -241,14 -368,17 63,-42 170,-124 207,-190 -142,-10 -241,27 -333,87z"/>
  <path class="fil0" d="M5528 17916c-541,113 -402,1140 171,1005 254,-60 361,-295 331,-601 -23,-232 -238,-459 -501,-404z"/>
  <path class="fil23" d="M11479 17945c-247,71 -297,349 -253,662 57,400 629,484 778,92 49,-128 56,-290 18,-419 -87,-300 -378,-382 -544,-334z"/>
  <path class="fil2" d="M2751 20330c-212,-267 -339,-229 -536,-200 16,157 226,432 290,488 64,56 102,44 149,111 -291,4 -440,0 -554,195 93,59 218,64 348,67 -25,69 -43,61 -38,137 160,124 211,35 353,-19 6,-2 224,-41 275,-186 -19,-22 -23,-20 -36,-31l-56 -48c296,-284 187,-682 -14,-783 -63,89 -19,92 -49,167 -41,103 1,-4 -104,72l-19 19c-2,2 -5,7 -9,11z"/>
  <path class="fil24" d="M15777 20230l-1 592c3,56 -4,173 151,135 55,-13 49,-8 72,-75 116,-340 93,-396 289,-640 48,-60 10,-34 84,-69 91,-147 102,-447 79,-661 -98,36 -96,117 -226,149 -6,-101 7,-157 -43,-231 -191,94 -431,583 -406,799z"/>
  <path class="fil16" d="M16644 16122c36,32 277,154 350,169 42,-10 23,1 50,-22l-17 -428 -12 -754 -43 -125c-206,39 -366,461 -582,566 -19,418 189,392 254,593z"/>
  <path class="fil25" d="M14569 20787c246,0 298,39 628,39 -54,-45 -87,-149 -99,-237 196,75 79,187 295,215 -18,-157 -126,-336 -145,-493 -10,-95 -75,-119 -168,-216 -76,-80 -98,-130 -239,-163 1,143 20,146 48,266 -183,-30 -246,-120 -467,-111 16,233 248,371 308,448 -127,9 -357,28 -424,155 47,17 245,96 263,95z"/>
  <path class="fil26" d="M1810 21730l83 44c282,103 237,115 542,170 278,51 390,156 514,302 -15,62 -327,-52 -368,-49 -84,8 -10,-18 -66,27 127,33 244,108 382,153 -41,-23 -1,-12 -27,31l177 -64c5,-200 -43,-241 -118,-374 -69,-124 -20,-267 -95,-397 -73,-126 -493,-283 -714,-272 12,146 123,270 153,408 -430,-13 -176,41 -463,21z"/>
  <path class="fil27" d="M12425 5451l-9 65c-128,-108 -103,-346 -254,-558l-109 34c-22,-93 0,-24 -36,-51 62,567 164,1136 472,1609 55,85 53,112 181,115 19,-248 -48,-414 -104,-629 -27,-103 -90,-531 -141,-586z"/>
  <path class="fil28" d="M2540 22717c88,57 109,20 203,11 -96,48 -249,184 -236,314 97,44 141,-17 194,-54 -1,113 -84,241 -12,365l26 6c38,-3 51,-5 84,-58 23,-37 43,-99 70,-142 53,59 -1,47 84,78l87 -240c46,76 45,152 105,212 54,-76 35,-116 54,-198 113,7 36,5 124,46l8 -241c2,4 10,-2 13,-2l40 -5c4,-1 10,-2 13,-3l27 -7c-198,-524 -256,-111 -473,35 32,-56 110,-124 130,-184 10,-30 8,-16 8,-49 0,-36 -4,-37 -11,-52 -123,-43 -470,90 -538,168z"/>
  <path class="fil28" d="M16377 20179c-63,135 -160,139 -250,376 -55,145 -91,355 -83,529 90,-6 42,1 97,-43l443 -484c275,-314 284,-757 215,-746 -136,48 -282,275 -422,369z"/>
  <path class="fil24" d="M15271 20281c47,58 56,116 76,181 48,154 198,374 326,389 33,-198 -19,-423 -14,-615 -8,-122 -188,-374 -276,-427 -105,-64 -153,30 -152,149 2,119 35,209 39,324z"/>
  <path class="fil29" d="M15606 18834c87,-223 -77,-259 -270,-263 -106,-3 -176,-2 -248,54 -50,39 -117,79 -131,151 -77,386 552,307 649,58z"/>
  <path class="fil30" d="M14614 21822l737 35c45,-349 -442,-400 -610,-243 -35,33 -129,149 -127,209z"/>
  <path class="fil31" d="M5853 6980c21,73 156,295 221,361 2,2 6,6 10,9 108,-126 124,-347 -30,-445l-33 15c-5,-1 -11,-3 -17,-5l-85 -2c-35,52 -24,66 -65,67z"/>
 </g>
</svg>
